<?xml version="1.0" encoding="UTF-8"?>
<svg xmlns="http://www.w3.org/2000/svg" width="739" height="264" viewBox="0 0 739 264">
  <g fill="#0C0110">
    <polygon points=".38 0 77.55 0 155.81 123 155.81 0 230.81 0 230.81 263.28 159.42 263.28 75.42 130.92 75.42 263.28 .42 263.28"/>
    <polygon points="544.32 0 738.08 .08 738.08 69.25 619.33 69.25 619.33 96.3 738.08 96.3 738.08 165.54 619.33 165.54 619.33 194.39 738.08 194.39 738.08 263.28 544.32 263.28"/>
    <polygon points="441.81 0 441.78 .05 387.64 93.91 333.34 0 257.88 0 257.88 263.28 333.26 263.28 333.26 130.56 387.64 224.61 441.81 130.69 441.81 263.28 517.18 263.28 517.18 0"/>
  </g>
</svg>
